<svg xmlns="http://www.w3.org/2000/svg" width="23.1" height="25.5" viewBox="0 0 23.1 25.5"><g transform="translate(-3.75 -2.25)"><path d="M6.9,5.25H23.7A3.154,3.154,0,0,1,26.85,8.4V25.2a3.154,3.154,0,0,1-3.15,3.15H6.9A3.154,3.154,0,0,1,3.75,25.2V8.4A3.154,3.154,0,0,1,6.9,5.25Zm16.8,21.6a1.652,1.652,0,0,0,1.65-1.65V8.4A1.652,1.652,0,0,0,23.7,6.75H6.9A1.652,1.652,0,0,0,5.25,8.4V25.2A1.652,1.652,0,0,0,6.9,26.85Z" transform="translate(0 -0.6)" fill="#bbb"/><path d="M24,8.55a.75.75,0,0,1-.75-.75V3a.75.75,0,0,1,1.5,0V7.8A.75.75,0,0,1,24,8.55Z" transform="translate(-3.9)" fill="#bbb"/><path d="M12,8.55a.75.75,0,0,1-.75-.75V3a.75.75,0,0,1,1.5,0V7.8A.75.75,0,0,1,12,8.55Z" transform="translate(-1.5)" fill="#bbb"/><path d="M26.1,15.75H4.5a.75.75,0,0,1,0-1.5H26.1a.75.75,0,0,1,0,1.5Z" transform="translate(0 -2.4)" fill="#bbb"/></g></svg>