<svg xmlns="http://www.w3.org/2000/svg" width="8.196" height="13.96" viewBox="0 0 8.196 13.96"><g transform="translate(-19.749 -82.75)"><path d="M13.57,12.922l5.093-5.089A.962.962,0,0,0,17.3,6.475l-5.77,5.766a.96.96,0,0,0-.028,1.326L17.3,19.373a.962.962,0,1,0,1.362-1.358Z" transform="translate(8.749 76.806)" fill="#9b9b9b"/><path d="M17.978,19.9a1.2,1.2,0,0,1-.858-.354l-5.8-5.814a1.207,1.207,0,0,1,.036-1.672L17.124,6.3a1.215,1.215,0,0,1,.86-.354A1.209,1.209,0,0,1,18.84,8.01l-4.916,4.912,4.912,4.916a1.21,1.21,0,0,1-.858,2.066Zm-6.294-6.509,5.79,5.8a.714.714,0,0,0,1.218-.506.7.7,0,0,0-.208-.5l-5.267-5.271,5.27-5.266A.708.708,0,0,0,18.7,7.15a.7.7,0,0,0-.208-.5.707.707,0,0,0-.5-.209.717.717,0,0,0-.507.209l-5.769,5.765A.708.708,0,0,0,11.684,13.395Z" transform="translate(8.749 76.806)" fill="#9b9b9b"/></g></svg>