<svg xmlns="http://www.w3.org/2000/svg" width="8.196" height="13.96" viewBox="0 0 8.196 13.96"><g transform="translate(-399.75 -82.75)"><path d="M16.626,12.922,11.533,7.833A.962.962,0,0,1,12.9,6.475l5.77,5.766a.96.96,0,0,1,.028,1.326L12.9,19.373a.962.962,0,0,1-1.362-1.358Z" transform="translate(388.749 76.806)" fill="#9b9b9b"/><path d="M12.218,19.9a1.209,1.209,0,0,1-.857-2.067l4.911-4.915L11.356,8.01A1.212,1.212,0,0,1,13.071,6.3l5.771,5.767a1.207,1.207,0,0,1,.036,1.672l-.007.008L13.076,19.55A1.2,1.2,0,0,1,12.218,19.9Zm-.006-13.46a.709.709,0,0,0-.5,1.213l5.27,5.266-5.266,5.27a.7.7,0,0,0-.209.5.715.715,0,0,0,1.218.506l5.79-5.8a.708.708,0,0,0-.024-.977l-5.77-5.766A.716.716,0,0,0,12.212,6.444Z" transform="translate(388.749 76.806)" fill="#9b9b9b"/></g></svg>