<svg xmlns="http://www.w3.org/2000/svg" width="50.966" height="50.966" viewBox="0 0 50.966 50.966"><g transform="translate(0.5 0.5)"><path d="M16.137,0H1.666A1.664,1.664,0,0,0,0,1.666V14.99a1.666,1.666,0,1,0,3.331,0V3.331H16.137a1.666,1.666,0,1,0,0-3.331Z" fill="#fff"/><path d="M1.666-.5H16.137a2.166,2.166,0,1,1,0,4.331H3.831V14.99a2.166,2.166,0,1,1-4.331,0V1.666A2.168,2.168,0,0,1,1.666-.5ZM16.137,2.831a1.166,1.166,0,1,0,0-2.331H1.666A1.167,1.167,0,0,0,.5,1.666V14.99a1.166,1.166,0,1,0,2.331,0V2.831Z" fill="#fff"/><path d="M16.137,333.324H3.331V321.666a1.666,1.666,0,1,0-3.331,0V334.99a1.664,1.664,0,0,0,1.666,1.666H16.137a1.666,1.666,0,1,0,0-3.331Z" transform="translate(0 -286.689)" fill="#fff"/><path d="M16.137,337.155H1.666A2.168,2.168,0,0,1-.5,334.99V321.666a2.166,2.166,0,1,1,4.331,0v11.159H16.137a2.166,2.166,0,0,1,0,4.331ZM1.666,320.5A1.167,1.167,0,0,0,.5,321.666V334.99a1.167,1.167,0,0,0,1.166,1.166H16.137a1.166,1.166,0,0,0,0-2.331H2.831V321.666A1.167,1.167,0,0,0,1.666,320.5Z" transform="translate(0 -286.689)" fill="#fff"/><path d="M352.779,0H341.522a1.666,1.666,0,1,0,0,3.331h9.592V14.99a1.666,1.666,0,1,0,3.331,0V1.666A1.664,1.664,0,0,0,352.779,0Z" transform="translate(-304.478 0)" fill="#fff"/><path d="M341.522-.5h11.257a2.168,2.168,0,0,1,2.166,2.166V14.99a2.166,2.166,0,1,1-4.331,0V3.831h-9.092a2.166,2.166,0,1,1,0-4.331Zm11.257,16.655a1.167,1.167,0,0,0,1.166-1.166V1.666A1.167,1.167,0,0,0,352.779.5H341.522a1.166,1.166,0,1,0,0,2.331h10.092V14.99A1.167,1.167,0,0,0,352.779,16.155Z" transform="translate(-304.478 0)" fill="#fff"/><path d="M352.779,320a1.664,1.664,0,0,0-1.666,1.666v11.659h-9.592a1.666,1.666,0,1,0,0,3.331h11.257a1.664,1.664,0,0,0,1.666-1.666V321.666A1.664,1.664,0,0,0,352.779,320Z" transform="translate(-304.478 -286.689)" fill="#fff"/><path d="M352.779,319.5a2.168,2.168,0,0,1,2.166,2.166V334.99a2.168,2.168,0,0,1-2.166,2.166H341.522a2.166,2.166,0,1,1,0-4.331h9.092V321.666A2.168,2.168,0,0,1,352.779,319.5Zm0,16.655a1.167,1.167,0,0,0,1.166-1.166V321.666a1.166,1.166,0,1,0-2.331,0v12.159H341.522a1.166,1.166,0,1,0,0,2.331Z" transform="translate(-304.478 -286.689)" fill="#fff"/></g></svg>