<svg xmlns="http://www.w3.org/2000/svg" width="26.5" height="26.5" viewBox="0 0 26.5 26.5"><g transform="translate(0.626 0.75)"><path d="M3.87-.75H7.616a4.532,4.532,0,0,1,4.508,4.506V7.5A4.529,4.529,0,0,1,7.616,12H3.87a4.519,4.519,0,0,1-4.5-4.5V3.756A4.479,4.479,0,0,1,.694.578,4.456,4.456,0,0,1,3.87-.75ZM7.616,10.5a3.046,3.046,0,0,0,3.008-3V3.756A3.047,3.047,0,0,0,7.616.75H3.87a3,3,0,0,0-3,3.006V7.5a3,3,0,0,0,3,3ZM17.62-.75h3.758A4.456,4.456,0,0,1,24.554.578a4.479,4.479,0,0,1,1.32,3.178V7.5a4.519,4.519,0,0,1-4.5,4.5H17.62a4.519,4.519,0,0,1-4.5-4.5V3.756A4.479,4.479,0,0,1,14.445.578,4.456,4.456,0,0,1,17.62-.75ZM21.378,10.5a3,3,0,0,0,3-3V3.756a3,3,0,0,0-3-3.006H17.62a3,3,0,0,0-3,3.006V7.5a3,3,0,0,0,3,3ZM3.87,13.006H7.616A4.521,4.521,0,0,1,12.124,17.5v3.746a4.529,4.529,0,0,1-4.508,4.5H3.87a4.519,4.519,0,0,1-4.5-4.5V17.5A4.5,4.5,0,0,1,3.87,13.006ZM7.616,24.25a3.046,3.046,0,0,0,3.008-3V17.5a3,3,0,0,0-3.008-2.994H3.87a3,3,0,0,0-3,2.994v3.746a3,3,0,0,0,3,3Zm10-11.244h3.758a4.5,4.5,0,0,1,4.5,4.494v3.746a4.519,4.519,0,0,1-4.5,4.5H17.62a4.519,4.519,0,0,1-4.5-4.5V17.5A4.5,4.5,0,0,1,17.62,13.006ZM21.378,24.25a3,3,0,0,0,3-3V17.5a3,3,0,0,0-3-2.994H17.62a3,3,0,0,0-3,2.994v3.746a3,3,0,0,0,3,3Z" transform="translate(0)" fill="#8d8d8d"/></g></svg>