<svg xmlns="http://www.w3.org/2000/svg" width="25" height="25" viewBox="0 0 25 25"><g transform="translate(-0.124)"><path d="M3.87,0A3.771,3.771,0,0,0,.124,3.756V7.5A3.769,3.769,0,0,0,3.87,11.254H7.616A3.779,3.779,0,0,0,11.374,7.5V3.756A3.782,3.782,0,0,0,7.616,0ZM17.62,0a3.771,3.771,0,0,0-3.746,3.756V7.5a3.769,3.769,0,0,0,3.746,3.754h3.758A3.769,3.769,0,0,0,25.124,7.5V3.756A3.771,3.771,0,0,0,21.378,0ZM3.87,13.756A3.761,3.761,0,0,0,.124,17.5v3.746A3.769,3.769,0,0,0,3.87,25H7.616a3.779,3.779,0,0,0,3.758-3.754V17.5a3.771,3.771,0,0,0-3.758-3.744Zm13.75,0A3.761,3.761,0,0,0,13.874,17.5v3.746A3.769,3.769,0,0,0,17.62,25h3.758a3.769,3.769,0,0,0,3.746-3.754V17.5a3.761,3.761,0,0,0-3.746-3.744Z" transform="translate(0)" fill="#b32f32"/></g></svg>