<svg xmlns="http://www.w3.org/2000/svg" width="21.001" height="20.998" viewBox="0 0 21.001 20.998"><g transform="translate(-9.188 -9.191)"><g transform="translate(9.689 9.691)"><path d="M25.339,30.189h0c-3.2,0-7.288-2.1-10.668-5.48a21.2,21.2,0,0,1-4.463-6.342,9.2,9.2,0,0,1-.819-5.929,4.521,4.521,0,0,1,1.162-2.064,3.524,3.524,0,0,1,.329-.294l.019-.014.423-.3a4.517,4.517,0,0,1,.848-.416,2.6,2.6,0,0,1,.9-.161,2.744,2.744,0,0,1,2.241,1.183l2.028,2.9a2.738,2.738,0,0,1-.679,3.818l-.556.388A25.7,25.7,0,0,0,18.782,20.6,25.732,25.732,0,0,0,21.9,23.274l.389-.557a2.739,2.739,0,0,1,3.817-.679l2.9,2.029a2.706,2.706,0,0,1,1.021,3.144,4.541,4.541,0,0,1-.4.827l-.014.022-.3.422a3.563,3.563,0,0,1-.307.348,4.521,4.521,0,0,1-2.065,1.162A6.222,6.222,0,0,1,25.339,30.189ZM11.486,10.876a2.574,2.574,0,0,0-.227.2,3.535,3.535,0,0,0-.9,1.615,8.246,8.246,0,0,0,.769,5.27A20.191,20.191,0,0,0,15.378,24c3.2,3.2,7.016,5.187,9.961,5.187v0a5.224,5.224,0,0,0,1.345-.165,3.535,3.535,0,0,0,1.616-.9,2.555,2.555,0,0,0,.216-.243l.268-.382a3.549,3.549,0,0,0,.306-.634,1.706,1.706,0,0,0-.657-1.977l-2.9-2.029a1.739,1.739,0,0,0-2.424.431l-.955,1.369-.408-.273A25.643,25.643,0,0,1,18.075,21.3,25.611,25.611,0,0,1,15,17.638l-.273-.408,1.368-.955a1.738,1.738,0,0,0,.431-2.425l-2.028-2.9a1.743,1.743,0,0,0-1.421-.755,1.6,1.6,0,0,0-.557.1,3.529,3.529,0,0,0-.652.318Z" transform="translate(-9.689 -9.691)" fill="#fff"/></g></g></svg>