<svg xmlns="http://www.w3.org/2000/svg" width="24.299" height="24.297" viewBox="0 0 24.299 24.297"><path d="M28.087,23.528a20.41,20.41,0,0,0-4.263-2.853c-1.278-.614-1.746-.6-2.65.051-.753.544-1.24,1.05-2.106.86s-2.575-1.48-4.232-3.131-2.948-3.365-3.131-4.232.323-1.354.86-2.106c.652-.9.671-1.373.051-2.65A20.006,20.006,0,0,0,9.762,5.2c-.93-.93-1.139-.727-1.651-.544a9.4,9.4,0,0,0-1.512.8A4.561,4.561,0,0,0,4.784,7.378c-.361.778-.778,2.227,1.347,6.009a33.531,33.531,0,0,0,5.9,7.863h0l.006.006.006.006h0a33.662,33.662,0,0,0,7.863,5.9c3.783,2.125,5.231,1.708,6.009,1.347a4.483,4.483,0,0,0,1.917-1.815,9.4,9.4,0,0,0,.8-1.512C28.815,24.666,29.023,24.458,28.087,23.528Z" transform="translate(-4.49 -4.503)" fill="#fff"/></svg>