<svg xmlns="http://www.w3.org/2000/svg" width="27" height="25" viewBox="0 0 27 25"><g transform="translate(-1 -2)"><g transform="translate(1 2)"><path d="M24.4,2H4.6A3.59,3.59,0,0,0,1,5.571v12.5a3.59,3.59,0,0,0,3.6,3.571H24.4A3.59,3.59,0,0,0,28,18.071V5.571A3.59,3.59,0,0,0,24.4,2ZM17.2,25.214V23.429H11.8v1.786H8.2V27H20.8V25.214Z" transform="translate(-1 -2)" fill="#b32f32"/><path d="M5.841.563A5.279,5.279,0,1,0,11.12,5.841,5.278,5.278,0,0,0,5.841.563ZM8.3,6.352,4.558,8.5a.512.512,0,0,1-.76-.447V3.627a.512.512,0,0,1,.76-.447L8.3,5.458A.512.512,0,0,1,8.3,6.352Z" transform="translate(7.659 4.565)" fill="#fff"/></g></g></svg>