<svg xmlns="http://www.w3.org/2000/svg" width="28.3" height="26.3" viewBox="0 0 28.3 26.3"><g transform="translate(-0.35 -1.35)"><g transform="translate(1 2)"><path d="M4.6,1.35H24.4a4.241,4.241,0,0,1,4.25,4.221v12.5a4.241,4.241,0,0,1-4.25,4.221H4.6A4.241,4.241,0,0,1,.35,18.071V5.571A4.241,4.241,0,0,1,4.6,1.35ZM24.4,20.993a2.939,2.939,0,0,0,2.95-2.921V5.571A2.939,2.939,0,0,0,24.4,2.65H4.6A2.939,2.939,0,0,0,1.65,5.571v12.5A2.939,2.939,0,0,0,4.6,20.993ZM11.15,22.779h6.7v1.786h3.6V27.65H7.55V24.564h3.6Zm5.4,1.3h-4.1v1.786H8.85v.486h11.3v-.486h-3.6Z" transform="translate(-1 -2)" fill="#8d8d8d"/><path d="M5.841.563A5.279,5.279,0,1,0,11.12,5.841,5.278,5.278,0,0,0,5.841.563ZM8.3,6.352,4.558,8.5a.512.512,0,0,1-.76-.447V3.627a.512.512,0,0,1,.76-.447L8.3,5.458A.512.512,0,0,1,8.3,6.352Z" transform="translate(7.659 4.565)" fill="#8d8d8d"/></g></g></svg>