<svg xmlns="http://www.w3.org/2000/svg" width="26.568" height="23.155" viewBox="0 0 26.568 23.155"><g transform="translate(0 -29.094)"><g transform="translate(0 29.094)"><path d="M6.23,133.736a.529.529,0,0,0,.512.512H19.827a.529.529,0,0,0,.512-.512v-.085h5.718a.51.51,0,0,0,.512-.512v-1.593A5.916,5.916,0,0,0,22.757,126a4.069,4.069,0,0,0-4.3-6.912,3.3,3.3,0,0,0-.6.455,4.807,4.807,0,0,0-6.059-3.1,4.756,4.756,0,0,0-3.1,3.1,4.066,4.066,0,1,0-5.518,5.974A3.532,3.532,0,0,0,3.84,126,5.942,5.942,0,0,0,0,131.546v1.593a.525.525,0,0,0,.484.512H6.2v.085Zm13.085-.484H7.225v-1.877A5.566,5.566,0,0,1,12.8,125.8h.91a5.566,5.566,0,0,1,5.575,5.575C19.315,131.4,19.315,133.281,19.315,133.253ZM8.079,126A4.1,4.1,0,0,0,9.7,124.15a4.557,4.557,0,0,0,1.138.939A6.486,6.486,0,0,0,8.7,126.255C8.477,126.17,8.278,126.056,8.079,126Zm7.652-.91a5.133,5.133,0,0,0,1.138-.939A4.253,4.253,0,0,0,18.49,126l-.6.256A6.924,6.924,0,0,0,15.73,125.089Zm8.363,2.958a4.93,4.93,0,0,1,1.451,3.5v1.109H20.31v-1.28a6.843,6.843,0,0,0-1.65-4.381A4.942,4.942,0,0,1,24.094,128.047Zm-6.031-7.055v-.2a3.086,3.086,0,1,1-.484,2.333,5.026,5.026,0,0,0,.484-2.133Zm-8.591-.313a3.8,3.8,0,1,1,1.991,3.641,3.793,3.793,0,0,1-1.991-3.641Zm-6.6,1.849a3.084,3.084,0,0,1,3.1-3.072,3.038,3.038,0,0,1,2.5,1.309A5.056,5.056,0,0,0,8.96,123.1a3.055,3.055,0,0,1-3.613,2.418,3.026,3.026,0,0,1-2.475-2.987ZM1,132.655v-1.109a4.953,4.953,0,0,1,4.95-4.95,5.117,5.117,0,0,1,1.934.4,6.658,6.658,0,0,0-1.65,4.381v1.28H1Z" transform="translate(0 -111.093)" fill="#fff"/><path d="M16,30.317v2.219a1.214,1.214,0,0,0,1.223,1.223h4.011L23,35.1a.5.5,0,0,0,.8-.4V30.317a1.214,1.214,0,0,0-1.223-1.223H17.253A1.238,1.238,0,0,0,16,30.317Zm1,0a.224.224,0,0,1,.228-.228h5.348a.224.224,0,0,1,.228.228V33.7l-1.109-.825a.549.549,0,0,0-.284-.085H17.253a.224.224,0,0,1-.228-.228V30.317Z" transform="translate(-15.062 -29.094)" fill="#fff"/><path d="M306.7,43.64a1.214,1.214,0,0,0-1.223,1.223v4.381a.5.5,0,0,0,.8.4l1.764-1.337h4.011a1.214,1.214,0,0,0,1.223-1.223V44.863a1.214,1.214,0,0,0-1.223-1.223Zm5.575,1.252V47.11a.224.224,0,0,1-.228.228H307.87a.648.648,0,0,0-.313.085l-1.109.825V44.892a.224.224,0,0,1,.228-.228h5.348A.218.218,0,0,1,312.279,44.892Z" transform="translate(-287.56 -42.787)" fill="#fff"/></g></g></svg>