<svg xmlns="http://www.w3.org/2000/svg" width="32.333" height="20.53" viewBox="0 0 32.333 20.53"><g transform="translate(0 -92.25)"><g transform="translate(0 92.25)"><g transform="translate(0 0)"><path d="M27.964,101.283a3.691,3.691,0,1,0-4.235,0,6.4,6.4,0,0,0-2.182,1.28,8.276,8.276,0,0,0-2.994-1.631,4.677,4.677,0,1,0-4.837,0,8.345,8.345,0,0,0-2.962,1.612A6.448,6.448,0,0,0,8.6,101.29a3.691,3.691,0,1,0-4.235,0A6.48,6.48,0,0,0,0,107.412v.422a.028.028,0,0,0,.026.026H7.85a8.6,8.6,0,0,0-.07,1.081v.435a3.4,3.4,0,0,0,3.4,3.4H21.1a3.4,3.4,0,0,0,3.4-3.4v-.435a8.6,8.6,0,0,0-.07-1.081h7.875a.028.028,0,0,0,.026-.026v-.422A6.5,6.5,0,0,0,27.964,101.283Zm-4.785-3.026a2.668,2.668,0,1,1,2.719,2.668h-.1A2.664,2.664,0,0,1,23.178,98.257Zm-10.71-1.331a3.653,3.653,0,1,1,3.864,3.647h-.422A3.658,3.658,0,0,1,12.469,96.927ZM3.794,98.257a2.668,2.668,0,1,1,2.719,2.668h-.1A2.668,2.668,0,0,1,3.794,98.257Zm4.235,8.573H1.036a5.466,5.466,0,0,1,5.387-4.881H6.5a5.409,5.409,0,0,1,3.487,1.3A8.4,8.4,0,0,0,8.029,106.83Zm15.437,2.546a2.384,2.384,0,0,1-2.38,2.38H11.17a2.384,2.384,0,0,1-2.38-2.38v-.435a7.349,7.349,0,0,1,7.121-7.338c.07.006.147.006.218.006s.147,0,.218-.006a7.349,7.349,0,0,1,7.121,7.338Zm.761-2.546a8.378,8.378,0,0,0-1.938-3.557,5.435,5.435,0,0,1,3.519-1.324h.077a5.466,5.466,0,0,1,5.387,4.881Z" transform="translate(0 -92.25)" fill="#fff"/></g></g></g></svg>