<svg xmlns="http://www.w3.org/2000/svg" width="21.98" height="24.555" viewBox="0 0 21.98 24.555"><g transform="translate(-24.165)"><g transform="translate(24.165)"><g transform="translate(0)"><path d="M117.167,12.751a6.375,6.375,0,1,0-6.375-6.375A6.392,6.392,0,0,0,117.167,12.751Z" transform="translate(-106.176)" fill="#fff"/><path d="M46.1,252.479a5.944,5.944,0,0,0-.64-1.169,7.925,7.925,0,0,0-5.484-3.452,1.174,1.174,0,0,0-.807.195,6.8,6.8,0,0,1-8.018,0,1.045,1.045,0,0,0-.807-.195,7.867,7.867,0,0,0-5.484,3.452,6.853,6.853,0,0,0-.64,1.169.592.592,0,0,0,.028.529,11.106,11.106,0,0,0,.752,1.114,10.579,10.579,0,0,0,1.281,1.448,16.691,16.691,0,0,0,1.281,1.114,12.7,12.7,0,0,0,15.145,0,12.24,12.24,0,0,0,1.281-1.114,12.854,12.854,0,0,0,1.281-1.448,9.759,9.759,0,0,0,.752-1.114A.475.475,0,0,0,46.1,252.479Z" transform="translate(-24.165 -234.634)" fill="#fff"/></g></g></g></svg>