<svg xmlns="http://www.w3.org/2000/svg" width="41.483" height="50.965" viewBox="0 0 41.483 50.965"><g transform="translate(-3.25 -1.25)"><path d="M25.769,22.88a1.778,1.778,0,0,0-3.556,0ZM22.214,49.151a1.778,1.778,0,1,0,3.556,0ZM8.81,17.271l-.194,1.767ZM22.7,21.721l1-1.469ZM8.81,45.593,9,43.825ZM22.7,50.042l1-1.469Zm16.477-32.77L38.979,15.5ZM25.287,21.721l-1-1.469ZM39.173,45.593l-.194-1.767ZM25.287,50.042l-1-1.469ZM18.36,9.869a1.778,1.778,0,0,0,1.78,3.078Zm9.482,3.078a1.778,1.778,0,1,0,1.78-3.078Zm-14.35-8.4A1.778,1.778,0,1,0,15.527,7.46ZM32.456,7.46A1.778,1.778,0,0,0,34.49,4.544ZM22.214,22.88V49.151h3.556V22.88Zm-13.6-3.841c4.112.452,9.414,1.654,13.079,4.151l2-2.939C19.307,17.261,13.306,15.977,9,15.5Zm0,28.321c4.112.452,9.414,1.654,13.079,4.151l2-2.939C19.307,45.582,13.306,44.3,9,43.825ZM3.25,20.818V41.587H6.806V20.818ZM9,43.825a2.375,2.375,0,0,1-2.2-2.238H3.25A5.927,5.927,0,0,0,8.616,47.36ZM9,15.5A5.24,5.24,0,0,0,3.25,20.818H6.806a1.687,1.687,0,0,1,1.81-1.78Zm29.975,0c-4.3.473-10.3,1.757-14.693,4.747l2,2.939c3.665-2.5,8.967-3.7,13.079-4.151Zm0,28.321c-4.3.473-10.3,1.757-14.693,4.747l2,2.939c3.665-2.5,8.967-3.7,13.079-4.151Zm2.2-23.007V41.587h3.556V20.818ZM39.367,47.36a5.927,5.927,0,0,0,5.366-5.773H41.177a2.375,2.375,0,0,1-2.2,2.238Zm0-28.321a1.687,1.687,0,0,1,1.81,1.78h3.556A5.24,5.24,0,0,0,38.979,15.5ZM21.695,51.511a4.1,4.1,0,0,0,4.593,0l-2-2.939a.543.543,0,0,1-.589,0Zm0-28.321a4.1,4.1,0,0,0,4.593,0l-2-2.939a.543.543,0,0,1-.589,0ZM20.141,12.947a7.661,7.661,0,0,1,3.851-1.03V8.361A11.216,11.216,0,0,0,18.36,9.869Zm3.851-1.03a7.661,7.661,0,0,1,3.851,1.03l1.78-3.078a11.216,11.216,0,0,0-5.631-1.507ZM15.527,7.46a14.739,14.739,0,0,1,8.465-2.655V1.25a18.3,18.3,0,0,0-10.5,3.294Zm8.465-2.655A14.739,14.739,0,0,1,32.456,7.46L34.49,4.544a18.3,18.3,0,0,0-10.5-3.294Z" transform="translate(0 0)" fill="#fff"/></g></svg>