<svg xmlns="http://www.w3.org/2000/svg" width="26.5" height="26.5" viewBox="0 0 26.5 26.5"><g transform="translate(-4.25 -4.58)"><path d="M17.5,4.58a2.594,2.594,0,0,1,1.341.374l10.648,6.428a2.641,2.641,0,0,1,1.261,2.239V27.535a3.545,3.545,0,0,1-3.527,3.545h-4.63a2.611,2.611,0,0,1-2.6-2.613V23.343a.179.179,0,0,0-.176-.182h-4.63a.179.179,0,0,0-.176.182v5.124a2.611,2.611,0,0,1-2.6,2.613H7.778A3.545,3.545,0,0,1,4.25,27.536V13.622a2.64,2.64,0,0,1,1.26-2.24L16.16,4.953A2.594,2.594,0,0,1,17.5,4.58Zm9.722,25a2.042,2.042,0,0,0,2.028-2.046V13.622a1.13,1.13,0,0,0-.538-.958L18.066,6.237a1.092,1.092,0,0,0-1.131,0L6.287,12.666a1.13,1.13,0,0,0-.537.958V27.535A2.042,2.042,0,0,0,7.779,29.58h4.629a1.109,1.109,0,0,0,1.1-1.113V23.343a1.681,1.681,0,0,1,1.676-1.682h4.63a1.681,1.681,0,0,1,1.676,1.682v5.124a1.109,1.109,0,0,0,1.1,1.113Z" transform="translate(0)" fill="#8d8d8d"/></g></svg>