<svg xmlns="http://www.w3.org/2000/svg" width="25" height="25" viewBox="0 0 25 25"><g transform="translate(-5 -5.33)"><path d="M30,13.622V27.535a2.789,2.789,0,0,1-2.778,2.795h-4.63a1.858,1.858,0,0,1-1.852-1.863V23.343a.929.929,0,0,0-.926-.932h-4.63a.929.929,0,0,0-.926.932v5.124a1.858,1.858,0,0,1-1.852,1.863H7.778A2.789,2.789,0,0,1,5,27.535V13.622a1.874,1.874,0,0,1,.9-1.6L16.547,5.6a1.842,1.842,0,0,1,1.906,0L29.1,12.023A1.874,1.874,0,0,1,30,13.622Z" transform="translate(0)" fill="#b32f32"/></g></svg>