<svg xmlns="http://www.w3.org/2000/svg" width="41.965" height="49.966" viewBox="0 0 41.965 49.966"><g transform="translate(-40.994)"><g transform="translate(40.994)"><path d="M82.959,32.206a4.888,4.888,0,0,0-3.9-4.781V22.154a1.464,1.464,0,0,0-1.978-1.371l-2.794,1.048A17.067,17.067,0,0,0,67.774,17.6a9.759,9.759,0,1,0-11.6,0,17.068,17.068,0,0,0-6.509,4.226l-2.794-1.048A1.464,1.464,0,0,0,44.9,22.154v5.271a4.88,4.88,0,0,0,0,9.563v5.661a1.464,1.464,0,0,0,.95,1.371l15.615,5.856a1.48,1.48,0,0,0,1.028,0l15.615-5.856a1.464,1.464,0,0,0,.95-1.371V36.987A4.888,4.888,0,0,0,82.959,32.206ZM55.145,9.759a6.831,6.831,0,1,1,6.831,6.831A6.839,6.839,0,0,1,55.145,9.759Zm6.831,9.759a14.129,14.129,0,0,1,9.261,3.454l-9.261,3.473-9.261-3.473A14.129,14.129,0,0,1,61.976,19.519ZM43.922,32.206a1.954,1.954,0,0,1,1.952-1.952h.976v3.9h-.976A1.954,1.954,0,0,1,43.922,32.206Zm3.9,4.831a2.444,2.444,0,0,0,1.952-2.391v-4.88a2.444,2.444,0,0,0-1.952-2.391V24.266l12.687,4.758V46.391L47.825,41.634ZM63.44,46.391V29.024l12.687-4.758v3.109a2.444,2.444,0,0,0-1.952,2.391v4.88a2.444,2.444,0,0,0,1.952,2.391v4.6ZM78.079,34.157H77.1v-3.9h.976a1.952,1.952,0,0,1,0,3.9Z" transform="translate(-40.994)" fill="#fff"/></g></g></svg>