<?xml version="1.0" standalone="no"?>
<!DOCTYPE svg PUBLIC "-//W3C//DTD SVG 20010904//EN"
 "http://www.w3.org/TR/2001/REC-SVG-20010904/DTD/svg10.dtd">
<svg version="1.0" xmlns="http://www.w3.org/2000/svg"
 width="793.000000pt" height="1122.000000pt" viewBox="0 0 793.000000 1122.000000"
 preserveAspectRatio="xMidYMid meet">
<metadata>
Created by potrace 1.16, written by Peter Selinger 2001-2019
</metadata>
<g transform="translate(0.000000,1122.000000) scale(0.100000,-0.100000)"
fill="#000000" stroke="none">
<path d="M2828 7883 c628 -2 1656 -2 2285 0 628 1 114 2 -1143 2 -1257 0
-1771 -1 -1142 -2z"/>
<path d="M2120 7116 c0 -31 5 -56 10 -56 6 0 10 9 10 19 0 12 9 21 26 25 20 5
25 12 22 34 -2 22 -9 28 -35 30 l-33 3 0 -55z m55 19 c0 -11 -8 -21 -17 -23
-14 -3 -18 3 -18 23 0 20 4 26 18 23 9 -2 17 -12 17 -23z"/>
<path d="M2240 7165 c0 -2 -9 -28 -20 -57 -12 -31 -15 -46 -7 -35 18 21 67 23
67 2 0 -8 4 -15 10 -15 5 0 1 23 -10 50 -11 28 -20 53 -20 55 0 3 -4 5 -10 5
-5 0 -10 -2 -10 -5z m23 -45 c4 -15 0 -20 -14 -20 -21 0 -22 1 -13 24 8 22 21
20 27 -4z"/>
<path d="M2310 7115 c0 -30 5 -55 10 -55 6 0 10 10 10 22 l0 21 23 -21 c34
-32 45 -27 14 6 l-27 29 20 18 c11 10 18 20 15 23 -3 3 -14 -3 -25 -13 -19
-18 -20 -17 -20 3 0 12 -4 22 -10 22 -5 0 -10 -25 -10 -55z"/>
<path d="M2400 7115 c0 -30 5 -55 10 -55 6 0 10 25 10 55 0 30 -4 55 -10 55
-5 0 -10 -25 -10 -55z"/>
<path d="M2443 7153 c-4 -11 3 -23 20 -37 35 -28 36 -50 2 -44 -14 3 -25 1
-25 -3 0 -14 47 -10 59 5 16 19 5 41 -26 55 -29 13 -22 27 17 34 21 4 19 5 -8
6 -22 1 -35 -4 -39 -16z"/>
<path d="M2533 7163 c13 -3 17 -15 17 -54 0 -27 5 -49 10 -49 6 0 10 22 10 49
0 39 4 51 18 54 9 3 -3 5 -28 5 -25 0 -37 -2 -27 -5z"/>
<path d="M2640 7165 c0 -2 -9 -28 -20 -57 -12 -31 -15 -46 -7 -35 18 21 67 23
67 2 0 -8 4 -15 10 -15 5 0 1 23 -10 50 -11 28 -20 53 -20 55 0 3 -4 5 -10 5
-5 0 -10 -2 -10 -5z m23 -45 c4 -15 0 -20 -14 -20 -21 0 -22 1 -13 24 8 22 21
20 27 -4z"/>
<path d="M2710 7115 c0 -30 5 -55 10 -55 6 0 10 19 11 43 l0 42 22 -42 c11
-24 25 -43 29 -43 4 0 7 26 6 58 l-1 57 -6 -45 -6 -45 -23 43 c-12 23 -27 42
-32 42 -6 0 -10 -25 -10 -55z"/>
<path d="M2913 7153 c-4 -11 3 -23 20 -37 35 -28 36 -50 2 -44 -14 3 -25 1
-25 -3 0 -14 47 -10 59 5 16 19 5 41 -26 55 -29 13 -22 27 17 34 21 4 19 5 -8
6 -22 1 -35 -4 -39 -16z"/>
<path d="M3016 7154 c-34 -33 -7 -98 37 -92 12 2 28 15 36 29 13 24 13 29 -2
53 -20 29 -48 34 -71 10z m52 -6 c18 -18 15 -68 -4 -75 -37 -14 -70 41 -44 73
15 17 32 18 48 2z"/>
<path d="M3120 7151 c-25 -47 -5 -92 40 -90 20 1 21 2 5 6 -30 8 -45 23 -45
48 0 25 15 40 45 48 15 4 14 5 -7 6 -18 1 -31 -6 -38 -18z"/>
<path d="M3200 7115 c0 -30 5 -55 10 -55 6 0 10 25 10 55 0 30 -4 55 -10 55
-5 0 -10 -25 -10 -55z"/>
<path d="M3250 7115 l0 -55 38 1 c30 2 32 3 10 6 -35 5 -39 40 -5 46 l22 4
-22 2 c-16 1 -23 7 -23 21 0 17 7 20 40 20 l40 0 0 -50 c0 -27 5 -50 10 -50 6
0 10 23 10 50 0 37 4 50 14 50 18 0 52 -47 59 -80 4 -25 4 -25 6 -2 0 13 10
37 22 53 11 16 17 29 12 29 -4 0 -14 -9 -21 -21 -13 -21 -13 -21 -37 5 -22 24
-31 26 -100 26 l-75 0 0 -55z"/>
<path d="M3616 7154 c-34 -33 -7 -98 37 -92 12 2 28 15 36 29 13 24 13 29 -2
53 -20 29 -48 34 -71 10z m52 -6 c18 -18 15 -68 -4 -75 -37 -14 -70 41 -44 73
15 17 32 18 48 2z"/>
<path d="M3710 7115 c0 -30 5 -55 10 -55 6 0 10 11 10 24 0 18 7 26 23 29 l22
4 -22 2 c-16 1 -23 7 -23 20 0 12 8 21 23 24 16 3 13 5 -10 6 l-33 1 0 -55z"/>
<path d="M3880 7115 c0 -30 5 -55 10 -55 6 0 10 25 10 55 0 30 -4 55 -10 55
-5 0 -10 -25 -10 -55z"/>
<path d="M3930 7115 c0 -30 5 -55 10 -55 6 0 10 19 11 43 l0 42 22 -42 c11
-24 25 -43 29 -43 4 0 7 26 6 58 l-1 57 -6 -45 -6 -45 -23 43 c-12 23 -27 42
-32 42 -6 0 -10 -25 -10 -55z"/>
<path d="M4033 7163 c13 -3 17 -15 17 -54 0 -27 5 -49 10 -49 6 0 10 22 10 49
0 39 4 51 18 54 9 3 -3 5 -28 5 -25 0 -37 -2 -27 -5z"/>
<path d="M4110 7115 l0 -55 38 1 c30 2 32 3 10 6 -35 5 -39 40 -5 46 l22 4
-22 2 c-35 2 -31 39 5 44 22 3 20 4 -10 6 l-38 1 0 -55z"/>
<path d="M4200 7116 c0 -31 5 -56 10 -56 6 0 10 11 10 25 0 14 5 25 10 25 6 0
16 -11 22 -25 6 -14 15 -25 20 -25 5 0 2 14 -7 30 -10 19 -11 30 -5 30 6 0 10
10 8 23 -2 17 -11 23 -35 25 l-33 3 0 -55z m55 24 c0 -8 -8 -16 -17 -18 -13
-2 -18 3 -18 18 0 15 5 20 18 18 9 -2 17 -10 17 -18z"/>
<path d="M4390 7115 l0 -55 38 1 c30 2 32 3 10 6 -35 5 -39 40 -5 46 l22 4
-22 2 c-35 2 -31 39 5 44 22 3 20 4 -10 6 l-38 1 0 -55z"/>
<path d="M4470 7115 c0 -30 5 -55 10 -55 6 0 10 19 11 43 l0 42 22 -42 c11
-24 25 -43 29 -43 4 0 7 26 6 58 l-1 57 -6 -45 -6 -45 -23 43 c-12 23 -27 42
-32 42 -6 0 -10 -25 -10 -55z"/>
<path d="M4583 7163 c13 -3 17 -15 17 -54 0 -27 5 -49 10 -49 6 0 10 22 10 49
0 39 4 51 18 54 9 3 -3 5 -28 5 -25 0 -37 -2 -27 -5z"/>
<path d="M4660 7115 c0 -30 5 -55 10 -55 6 0 10 25 10 55 0 30 -4 55 -10 55
-5 0 -10 -25 -10 -55z"/>
<path d="M4726 7154 c-34 -33 -7 -98 37 -92 12 2 28 15 36 29 13 24 13 29 -2
53 -20 29 -48 34 -71 10z m52 -6 c18 -18 15 -68 -4 -75 -37 -14 -70 41 -44 73
15 17 32 18 48 2z"/>
<path d="M4820 7115 c0 -30 5 -55 10 -55 6 0 10 19 11 43 l0 42 22 -42 c11
-24 25 -43 29 -43 4 0 7 26 6 58 l-1 57 -6 -45 -6 -45 -23 43 c-12 23 -27 42
-32 42 -6 0 -10 -25 -10 -55z"/>
<path d="M4960 7165 c0 -2 -9 -28 -20 -57 -12 -31 -15 -46 -7 -35 18 21 67 23
67 2 0 -8 4 -15 10 -15 5 0 1 23 -10 50 -11 28 -20 53 -20 55 0 3 -4 5 -10 5
-5 0 -10 -2 -10 -5z m23 -45 c4 -15 0 -20 -14 -20 -21 0 -22 1 -13 24 8 22 21
20 27 -4z"/>
<path d="M5030 7115 l0 -55 38 1 c30 2 32 3 10 6 -26 4 -28 8 -28 54 0 27 -4
49 -10 49 -5 0 -10 -25 -10 -55z"/>
<path d="M5210 7151 c-25 -47 -5 -92 40 -90 20 1 21 2 5 6 -30 8 -45 23 -45
48 0 25 15 40 45 48 15 4 14 5 -7 6 -18 1 -31 -6 -38 -18z"/>
<path d="M5320 7165 c0 -2 -9 -28 -20 -57 -12 -31 -15 -46 -7 -35 18 21 67 23
67 2 0 -8 4 -15 10 -15 5 0 1 23 -10 50 -11 28 -20 53 -20 55 0 3 -4 5 -10 5
-5 0 -10 -2 -10 -5z m23 -45 c4 -15 0 -20 -14 -20 -21 0 -22 1 -13 24 8 22 21
20 27 -4z"/>
<path d="M5390 7116 c0 -31 5 -56 10 -56 6 0 10 11 10 25 0 14 5 25 10 25 6 0
16 -11 22 -25 6 -14 15 -25 20 -25 5 0 2 14 -7 30 -10 19 -11 30 -5 30 6 0 10
10 8 23 -2 17 -11 23 -35 25 l-33 3 0 -55z m55 24 c0 -8 -8 -16 -17 -18 -13
-2 -18 3 -18 18 0 15 5 20 18 18 9 -2 17 -10 17 -18z"/>
<path d="M5480 7115 c0 -54 1 -55 28 -55 36 0 52 17 52 55 0 38 -16 55 -52 55
-27 0 -28 -1 -28 -55z m58 33 c25 -25 8 -78 -25 -78 -9 0 -13 15 -13 45 0 46
13 58 38 33z"/>
<path d="M5590 7115 c0 -30 5 -55 10 -55 6 0 10 25 10 55 0 30 -4 55 -10 55
-5 0 -10 -25 -10 -55z"/>
<path d="M5646 7154 c-34 -33 -7 -98 37 -92 12 2 28 15 36 29 13 24 13 29 -2
53 -20 29 -48 34 -71 10z m52 -6 c18 -18 15 -68 -4 -75 -37 -14 -70 41 -44 73
15 17 32 18 48 2z"/>
<path d="M5740 7115 l0 -55 38 1 c30 2 32 3 10 6 -26 4 -28 8 -28 54 0 27 -4
49 -10 49 -5 0 -10 -25 -10 -55z"/>
<path d="M5836 7154 c-34 -33 -7 -98 37 -92 12 2 28 15 36 29 13 24 13 29 -2
53 -20 29 -48 34 -71 10z m52 -6 c18 -18 15 -68 -4 -75 -37 -14 -70 41 -44 73
15 17 32 18 48 2z"/>
<path d="M5950 7151 c-14 -27 -13 -66 4 -80 7 -6 25 -10 40 -9 21 2 26 7 26
30 0 20 -5 28 -17 27 -11 0 -13 -3 -5 -6 17 -7 15 -32 -3 -39 -21 -8 -45 14
-45 41 0 27 15 41 50 48 21 4 20 4 -7 6 -23 1 -35 -5 -43 -18z"/>
<path d="M4302 7110 c11 -27 24 -50 27 -50 9 0 43 92 36 98 -2 3 -9 -8 -15
-24 -6 -16 -13 -36 -16 -44 -4 -10 -11 0 -21 28 -8 23 -19 42 -23 42 -5 0 0
-22 12 -50z"/>
<path d="M6048 7132 c11 -15 22 -38 25 -52 4 -25 4 -25 6 -2 0 13 10 37 22 53
24 34 16 39 -11 7 l-17 -22 -12 22 c-6 12 -16 22 -22 22 -6 0 -2 -12 9 -28z"/>
<path d="M3275 6891 c-110 -13 -193 -37 -290 -85 -148 -73 -249 -172 -319
-313 -142 -283 -126 -579 45 -864 112 -188 244 -331 637 -697 333 -309 435
-423 520 -580 l39 -72 36 73 c78 158 213 302 557 597 512 438 697 686 736 988
7 51 8 53 33 47 74 -18 133 -64 157 -121 20 -48 27 -146 11 -156 -9 -6 -9 -8
1 -8 7 0 12 -13 12 -29 0 -18 6 -31 16 -35 15 -6 16 3 12 81 -6 109 -34 177
-93 232 -46 43 -93 72 -80 50 6 -9 3 -11 -9 -6 -10 4 -21 7 -24 7 -4 0 0 5 8
11 12 8 10 9 -7 4 -23 -6 -23 -5 -23 92 -1 355 -175 606 -490 705 -95 29 -269
32 -370 5 -80 -21 -193 -76 -240 -116 l-35 -30 75 24 c120 37 252 51 355 36
162 -23 276 -81 384 -196 104 -111 161 -261 161 -423 l0 -83 -47 2 c-27 1 -66
-2 -88 -6 -22 -4 -49 -9 -60 -10 -31 -5 -31 -6 -11 -14 12 -5 1 -7 -30 -7 -42
-1 -234 -57 -319 -93 -11 -5 -51 -22 -88 -37 -64 -26 -92 -44 -67 -44 6 0 8
-5 4 -12 -8 -13 -15 -15 115 42 125 54 307 114 406 133 121 24 185 30 185 19
0 -5 -11 -52 -24 -104 -59 -234 -229 -462 -535 -721 -178 -151 -383 -352 -520
-512 -52 -61 -97 -111 -100 -112 -3 -2 -19 16 -36 40 -16 23 -198 209 -404
412 -460 455 -555 565 -645 742 -60 120 -80 209 -80 353 0 202 37 303 155 421
185 186 508 223 784 89 146 -70 265 -170 377 -317 90 -118 165 -242 219 -360
22 -49 46 -101 54 -118 l14 -30 0 30 c1 61 -29 223 -54 295 -97 272 -272 523
-449 643 -77 52 -208 112 -275 126 -75 16 -213 21 -296 12z m1732 -877 c-3 -3
-12 -4 -19 -1 -8 3 -5 6 6 6 11 1 17 -2 13 -5z m-60 -10 c-3 -3 -12 -4 -19 -1
-8 3 -5 6 6 6 11 1 17 -2 13 -5z m-357 -104 c-8 -5 -19 -10 -25 -10 -5 0 -3 5
5 10 8 5 20 10 25 10 6 0 3 -5 -5 -10z m-50 -20 c-8 -5 -19 -10 -25 -10 -5 0
-3 5 5 10 8 5 20 10 25 10 6 0 3 -5 -5 -10z"/>
<path d="M3510 5530 l0 -140 25 0 c23 0 25 3 25 50 l0 50 43 0 c52 0 107 27
126 61 12 22 12 31 2 57 -18 43 -64 62 -150 62 l-71 0 0 -140z m143 101 c28
-11 42 -41 32 -69 -7 -24 -46 -42 -90 -42 l-35 0 0 60 0 60 34 0 c19 0 46 -4
59 -9z"/>
<path d="M3810 5657 c-13 -7 -31 -24 -39 -38 -22 -40 2 -70 77 -97 68 -25 86
-42 77 -71 -8 -27 -65 -37 -117 -21 -33 9 -42 9 -49 -2 -14 -22 47 -41 115
-36 49 4 63 9 83 32 44 52 22 93 -71 129 -129 49 -79 108 64 75 7 -2 15 4 17
13 7 28 -109 40 -157 16z"/>
<path d="M4030 5530 l0 -140 25 0 25 0 0 140 0 140 -25 0 -25 0 0 -140z"/>
<path d="M4201 5653 c-47 -23 -71 -67 -71 -129 0 -60 25 -99 76 -120 56 -23
154 -16 154 12 0 11 -13 12 -57 8 -50 -5 -62 -3 -85 15 -15 12 -32 37 -37 56
-13 47 3 98 37 126 23 18 35 20 78 15 39 -4 53 -3 57 8 11 29 -98 36 -152 9z"/>
<path d="M5360 5622 c0 -12 3 -12 15 -2 8 7 15 13 15 15 0 1 -7 2 -15 2 -8 0
-15 -7 -15 -15z"/>
<path d="M5430 5613 c0 -12 6 -24 13 -27 6 -3 1 -3 -11 0 -20 5 -23 3 -21 -18
2 -12 0 -29 -5 -36 -8 -14 9 -42 26 -42 6 0 8 9 5 20 -3 10 0 18 5 17 17 -3
20 51 4 80 -14 26 -15 26 -16 6z"/>
<path d="M5338 5585 c5 -27 16 -32 28 -13 4 7 3 8 -4 4 -8 -5 -12 0 -12 13 0
12 -4 21 -9 21 -4 0 -6 -11 -3 -25z"/>
<path d="M5286 5543 c-6 -14 -5 -15 5 -6 7 7 10 15 7 18 -3 3 -9 -2 -12 -12z"/>
<path d="M5487 5523 c3 -7 6 -13 8 -13 1 0 7 6 13 13 8 10 6 13 -7 13 -11 0
-17 -6 -14 -13z"/>
<path d="M5405 5480 c3 -6 -4 -10 -17 -10 -18 0 -20 -2 -9 -9 12 -8 12 -12 2
-25 -8 -10 -9 -16 -3 -16 12 0 38 24 45 42 4 10 8 9 17 -2 9 -12 11 -12 8 -1
-2 8 -14 18 -27 22 -14 6 -20 5 -16 -1z"/>
<path d="M5493 5470 l-23 -18 24 2 c13 0 22 4 20 8 -2 3 1 8 8 10 7 3 8 7 2
10 -5 3 -19 -2 -31 -12z"/>
<path d="M5254 5472 c-6 -4 -8 -16 -4 -27 6 -17 7 -16 12 8 3 15 5 27 4 27 0
0 -6 -4 -12 -8z"/>
<path d="M5280 5430 c-8 -5 -10 -10 -5 -10 6 0 17 5 25 10 8 5 11 10 5 10 -5
0 -17 -5 -25 -10z"/>
<path d="M5340 5416 c-5 -14 -25 -48 -45 -75 -19 -28 -35 -55 -35 -60 0 -5 -6
-11 -12 -14 -7 -3 5 -4 27 -3 36 1 64 18 65 38 0 4 -15 5 -32 3 l-33 -5 35 11
c55 16 85 67 33 55 -21 -5 -24 -4 -13 4 8 5 25 10 36 10 12 0 25 7 28 16 8 21
9 21 -16 20 -13 -1 -22 4 -20 12 4 21 -8 13 -18 -12z"/>
<path d="M5437 5393 c15 -23 31 -34 17 -11 -4 6 0 16 9 23 14 10 12 12 -13 12
-27 0 -28 -1 -13 -24z"/>
<path d="M5495 5410 c3 -5 8 -10 11 -10 2 0 4 5 4 10 0 6 -5 10 -11 10 -5 0
-7 -4 -4 -10z"/>
<path d="M5404 5366 c-10 -21 -9 -25 12 -29 13 -2 25 1 28 9 3 8 0 11 -9 8 -8
-4 -15 2 -17 15 -3 20 -4 20 -14 -3z"/>
<path d="M5460 5345 c0 -8 2 -15 4 -15 2 0 6 7 10 15 3 8 1 15 -4 15 -6 0 -10
-7 -10 -15z"/>
<path d="M5215 5329 c-4 -6 -5 -12 -2 -15 2 -3 7 2 10 11 7 17 1 20 -8 4z"/>
<path d="M5444 5305 c2 -7 -1 -18 -7 -25 -9 -10 -9 -11 0 -6 7 4 17 15 22 25
8 13 6 18 -5 18 -8 0 -13 -6 -10 -12z"/>
<path d="M5136 5295 c4 -8 8 -15 10 -15 2 0 4 7 4 15 0 8 -4 15 -10 15 -5 0
-7 -7 -4 -15z"/>
<path d="M5376 5301 c-10 -15 22 -20 34 -5 10 11 9 14 -8 14 -12 0 -23 -4 -26
-9z"/>
<path d="M5198 5283 c6 -2 18 -2 25 0 6 3 1 5 -13 5 -14 0 -19 -2 -12 -5z"/>
<path d="M5133 5243 c0 -16 -1 -16 33 2 l29 15 -31 -3 c-17 -1 -31 -8 -31 -14z"/>
<path d="M5261 5251 c-16 -10 -7 -47 14 -55 9 -3 12 0 9 8 -3 8 -1 17 5 21 15
9 14 35 -1 35 -7 0 -19 -4 -27 -9z"/>
<path d="M5413 5253 c-7 -3 -13 -14 -13 -24 0 -13 -4 -18 -12 -13 -10 6 -10 4
0 -7 9 -10 15 -10 24 -1 7 7 8 12 4 12 -5 0 -3 7 4 15 14 17 11 24 -7 18z"/>
<path d="M5325 5240 c-19 -8 -19 -9 3 -9 12 -1 25 -1 29 -2 4 0 9 4 11 10 4
13 -15 13 -43 1z"/>
<path d="M5210 5221 c-13 -25 -13 -31 3 -31 22 0 38 16 31 33 -8 22 -21 21
-34 -2z"/>
<path d="M5168 5213 c7 -3 16 -2 19 1 4 3 -2 6 -13 5 -11 0 -14 -3 -6 -6z"/>
<path d="M5304 5198 c-4 -7 -3 -8 4 -4 7 4 12 3 12 -3 0 -5 -8 -12 -17 -14
-10 -3 -6 -4 8 -4 20 1 25 5 21 19 -5 21 -17 23 -28 6z"/>
<path d="M5140 5178 c0 -5 7 -8 16 -8 12 0 9 -8 -12 -32 -15 -18 -30 -32 -34
-31 -3 1 -6 -6 -7 -16 -1 -15 6 -18 42 -17 35 1 45 5 49 21 11 40 8 44 -26 34
-17 -5 -27 -5 -22 0 17 16 64 22 64 8 0 -7 10 -14 22 -14 16 -2 19 0 9 6 -11
7 -10 13 2 32 l16 24 -59 0 c-33 0 -60 -3 -60 -7z"/>
<path d="M5375 5181 c4 -7 4 -16 -1 -20 -5 -3 -19 -18 -32 -33 -17 -19 -20
-28 -11 -33 8 -5 10 -4 5 3 -4 7 -3 12 2 12 4 0 19 14 31 31 18 24 20 33 11
42 -10 9 -11 9 -5 -2z"/>
<path d="M5011 5160 c-13 -11 -19 -20 -13 -20 5 0 15 7 22 15 7 8 17 12 23 8
6 -3 7 -1 3 5 -9 15 -6 15 -35 -8z"/>
<path d="M5110 5169 c0 -5 5 -7 10 -4 6 3 10 8 10 11 0 2 -4 4 -10 4 -5 0 -10
-5 -10 -11z"/>
<path d="M5040 5130 c-18 -12 -2 -12 25 0 13 6 15 9 5 9 -8 0 -22 -4 -30 -9z"/>
<path d="M5260 5133 c0 -5 11 -8 25 -8 14 0 25 3 25 8 0 4 -11 7 -25 7 -14 0
-25 -3 -25 -7z"/>
<path d="M4956 5105 c-11 -8 -15 -15 -9 -15 7 0 15 5 18 10 4 6 11 7 17 4 7
-4 8 -2 4 4 -9 14 -7 15 -30 -3z"/>
<path d="M5005 5090 c-3 -5 -1 -10 4 -10 6 0 11 5 11 10 0 6 -2 10 -4 10 -3 0
-8 -4 -11 -10z"/>
<path d="M4926 5072 c-3 -5 1 -9 9 -9 8 0 12 4 9 9 -3 4 -7 8 -9 8 -2 0 -6 -4
-9 -8z"/>
<path d="M5306 5064 c-3 -9 -11 -12 -18 -8 -8 5 -9 2 -5 -9 6 -17 -39 -61 -53
-52 -5 3 -12 0 -16 -6 -4 -8 -3 -9 4 -5 21 12 7 -33 -14 -49 -10 -8 -15 -15
-10 -15 6 0 -6 -11 -25 -25 -19 -14 -34 -31 -34 -38 0 -7 -5 -19 -9 -27 -6 -9
-1 -8 12 4 23 20 30 32 12 21 -5 -3 -10 -1 -10 4 0 6 5 11 10 11 17 0 99 91
94 105 -3 7 1 15 9 18 18 7 82 87 69 87 -5 0 -13 -7 -16 -16z"/>
<path d="M5062 5059 c9 -6 9 -11 0 -22 -10 -12 -8 -13 13 -9 14 2 31 -1 38 -7
10 -8 18 -4 35 18 l21 28 -59 0 c-33 -1 -54 -4 -48 -8z"/>
<path d="M4934 5018 c-5 -7 -2 -9 9 -5 8 3 21 -1 27 -8 13 -16 30 -11 29 8 0
9 -2 9 -6 0 -3 -10 -8 -9 -20 2 -17 18 -29 19 -39 3z"/>
<path d="M5006 4983 c-15 -18 -33 -30 -39 -26 -7 3 -9 2 -4 -2 4 -5 -3 -20
-15 -33 -13 -14 -17 -22 -10 -18 6 4 12 2 12 -4 0 -6 -10 -8 -26 -4 -17 4 -25
3 -21 -3 3 -5 -14 -28 -37 -51 -34 -33 -45 -39 -50 -27 -3 8 -11 15 -18 15 -9
0 -8 -3 2 -10 20 -13 0 -46 -26 -42 -14 2 -16 1 -5 -6 10 -7 5 -16 -23 -38
-40 -32 -47 -49 -16 -39 11 3 25 3 30 0 15 -9 -7 -35 -29 -35 -9 0 -21 -10
-26 -22 -6 -13 -18 -24 -27 -26 -27 -5 -22 27 5 37 19 8 20 10 5 16 -11 4 -33
-6 -67 -32 -27 -21 -50 -42 -50 -46 -1 -4 -10 -17 -21 -29 -26 -28 -19 -34 14
-13 42 28 30 0 -16 -37 -46 -37 -139 -91 -145 -84 -2 2 23 28 57 58 33 30 60
58 60 62 0 10 -96 -59 -140 -101 -20 -18 -39 -33 -43 -33 -14 0 -176 -113
-172 -120 2 -4 -34 -31 -80 -61 -83 -53 -102 -77 -54 -70 64 9 388 214 526
332 39 33 45 35 92 29 27 -3 48 -3 45 2 -3 4 -21 8 -40 8 l-36 0 24 29 c18 21
25 25 31 15 4 -8 16 -14 25 -14 16 1 15 1 -1 11 -16 10 -16 12 4 37 11 15 24
27 27 27 14 0 72 49 72 60 0 6 -12 12 -27 13 -38 3 -38 7 1 30 34 20 54 19 37
-2 -5 -6 -7 -23 -4 -38 5 -25 10 -28 43 -28 28 0 40 -5 49 -22 l11 -23 -6 24
c-5 18 -3 22 7 15 12 -6 12 -5 1 8 -9 12 -23 15 -52 11 -31 -4 -40 -2 -40 9 0
9 7 22 16 29 9 7 20 23 25 36 5 13 14 20 22 18 18 -7 61 40 51 56 -5 9 -2 11
9 6 8 -3 20 0 26 6 5 7 24 14 42 15 18 2 35 5 38 9 4 3 -9 4 -26 1 -26 -4 -33
-1 -33 13 0 9 -6 20 -12 23 -7 3 -4 4 7 3 11 -2 19 -9 17 -17 -3 -11 1 -10 16
3 10 9 22 14 25 10 4 -3 7 -1 7 5 0 5 3 18 7 28 6 15 2 16 -33 11 -26 -4 -34
-3 -24 3 8 5 29 10 47 10 21 0 37 7 47 22 23 33 20 39 -22 36 -28 -2 -44 -11
-66 -35z m-101 -153 c-3 -5 -12 -10 -18 -10 -7 0 -6 4 3 10 19 12 23 12 15 0z
m-65 -50 c0 -5 -5 -10 -11 -10 -5 0 -7 5 -4 10 3 6 8 10 11 10 2 0 4 -4 4 -10z
m-193 -168 c1 -11 -6 -18 -19 -19 -19 -2 -19 -1 -3 18 22 23 20 23 22 1z
m-467 -346 c0 -2 -17 -14 -37 -25 l-38 -22 28 26 c25 22 47 32 47 21z"/>
<path d="M5178 5013 c6 -2 18 -2 25 0 6 3 1 5 -13 5 -14 0 -19 -2 -12 -5z"/>
<path d="M4850 5002 c0 -5 7 -9 15 -9 8 0 12 4 9 9 -3 4 -9 8 -15 8 -5 0 -9
-4 -9 -8z"/>
<path d="M4895 4981 c-11 -5 -23 -7 -27 -5 -3 3 -5 -11 -2 -31 4 -30 2 -33
-13 -28 -17 6 -17 6 -1 -10 24 -24 27 -22 23 19 -4 40 20 59 40 31 7 -10 16
-13 26 -6 12 7 11 9 -3 9 -9 0 -20 5 -24 12 -5 8 -2 9 9 5 10 -3 17 -2 17 3 0
12 -17 12 -45 1z"/>
<path d="M5115 4970 c-3 -5 -1 -10 4 -10 6 0 11 5 11 10 0 6 -2 10 -4 10 -3 0
-8 -4 -11 -10z"/>
<path d="M5161 4954 c0 -11 3 -14 6 -6 3 7 2 16 -1 19 -3 4 -6 -2 -5 -13z"/>
<path d="M4780 4945 c-16 -19 0 -19 26 0 16 12 16 14 3 15 -9 0 -22 -7 -29
-15z"/>
<path d="M5118 4930 c-7 -11 -24 -20 -37 -20 -33 0 -24 -7 17 -13 27 -5 32 -3
28 10 -4 9 -1 22 5 29 6 8 9 14 5 14 -3 0 -11 -9 -18 -20z"/>
<path d="M4721 4890 c-17 -15 -19 -20 -7 -20 8 0 20 9 26 20 13 25 11 25 -19
0z"/>
<path d="M4808 4903 c7 -3 16 -2 19 1 4 3 -2 6 -13 5 -11 0 -14 -3 -6 -6z"/>
<path d="M5105 4870 c3 -5 8 -10 11 -10 2 0 4 5 4 10 0 6 -5 10 -11 10 -5 0
-7 -4 -4 -10z"/>
<path d="M4750 4855 c-27 -15 -18 -19 15 -6 11 5 28 4 39 -1 12 -7 22 -6 30 3
8 9 7 11 -6 6 -10 -4 -18 -2 -18 3 0 14 -31 12 -60 -5z"/>
<path d="M4666 4839 c-11 -11 -15 -19 -9 -19 12 0 38 28 32 34 -2 2 -13 -5
-23 -15z"/>
<path d="M5053 4821 c-10 -39 -10 -42 3 -29 9 9 14 28 12 44 -3 27 -4 25 -15
-15z"/>
<path d="M4705 4796 c-22 -6 -40 -18 -40 -25 0 -8 -16 -20 -35 -27 -19 -7 -29
-13 -23 -13 8 -1 11 -12 7 -33 l-5 -33 13 35 c12 33 15 35 55 32 22 -2 43 1
46 5 3 5 -7 7 -24 5 -16 -2 -29 0 -29 6 0 17 30 42 50 42 10 0 22 5 25 10 3 6
5 10 3 9 -2 0 -21 -6 -43 -13z"/>
<path d="M4965 4800 c-30 -8 -30 -8 8 -9 35 -1 43 -10 38 -43 0 -5 3 -8 8 -8
8 0 9 19 2 63 -1 8 -14 8 -56 -3z"/>
<path d="M5080 4790 c-9 -6 -10 -10 -3 -10 6 0 15 5 18 10 8 12 4 12 -15 0z"/>
<path d="M4584 4774 c-18 -14 -18 -15 4 -4 12 6 22 13 22 15 0 8 -5 6 -26 -11z"/>
<path d="M4628 4783 c7 -3 16 -2 19 1 4 3 -2 6 -13 5 -11 0 -14 -3 -6 -6z"/>
<path d="M4870 4749 c0 -5 9 -9 20 -9 11 0 20 2 20 4 0 2 -9 6 -20 9 -11 3
-20 1 -20 -4z"/>
<path d="M4991 4744 c0 -11 3 -14 6 -6 3 7 2 16 -1 19 -3 4 -6 -2 -5 -13z"/>
<path d="M4947 4722 c-7 -18 -18 -27 -27 -24 -8 2 -2 -8 13 -23 l29 -28 21 24
22 23 -24 -19 c-22 -18 -24 -18 -18 -2 5 12 3 16 -5 11 -8 -5 -9 -2 -5 10 4
10 7 22 7 27 0 6 5 7 10 4 6 -4 7 -11 4 -17 -4 -6 -2 -8 4 -5 12 8 4 47 -10
47 -5 0 -14 -13 -21 -28z"/>
<path d="M4519 4719 c-23 -19 -23 -20 -2 -10 12 6 25 16 28 21 10 16 -1 12
-26 -11z"/>
<path d="M5035 4730 c-4 -6 -11 -7 -17 -4 -7 4 -8 2 -4 -5 6 -9 11 -9 22 0 14
11 18 19 10 19 -3 0 -8 -5 -11 -10z"/>
<path d="M4545 4680 c-4 -6 3 -10 14 -10 25 0 27 6 6 13 -8 4 -17 2 -20 -3z"/>
<path d="M4813 4618 c-1 -13 -4 -35 -8 -50 -5 -20 -4 -28 6 -28 7 0 10 3 7 6
-4 3 -1 20 7 37 12 31 11 57 -3 57 -4 0 -8 -10 -9 -22z"/>
<path d="M4850 4611 c0 -25 6 -27 13 -6 4 8 2 17 -3 20 -6 4 -10 -3 -10 -14z"/>
<path d="M4884 4608 c4 -18 28 -16 34 2 4 13 3 13 -10 2 -11 -9 -18 -9 -21 -2
-3 6 -4 5 -3 -2z"/>
<path d="M4760 4550 c8 -14 8 -20 0 -20 -6 0 -8 -5 -4 -11 4 -8 12 -3 20 12
18 33 17 39 -6 39 -18 0 -19 -3 -10 -20z"/>
<path d="M4829 4533 c-13 -16 -12 -17 4 -4 16 13 21 21 13 21 -2 0 -10 -8 -17
-17z"/>
<path d="M4636 4495 c4 -8 11 -15 16 -15 6 0 5 6 -2 15 -7 8 -14 15 -16 15 -2
0 -1 -7 2 -15z"/>
<path d="M4676 4474 c-4 -15 -5 -29 -1 -32 3 -3 5 0 5 7 0 7 5 9 12 5 6 -4 8
-3 5 3 -4 6 0 13 8 17 8 3 15 11 15 18 0 9 -3 8 -10 -2 -6 -10 -10 -11 -10 -2
0 22 -18 12 -24 -14z"/>
<path d="M4680 4416 c7 -7 13 -7 20 0 6 6 3 10 -10 10 -13 0 -16 -4 -10 -10z"/>
<path d="M2828 3323 c628 -2 1656 -2 2285 0 628 1 114 2 -1143 2 -1257 0
-1771 -1 -1142 -2z"/>
</g>
</svg>
