<svg xmlns="http://www.w3.org/2000/svg" width="49.065" height="50.207" viewBox="0 0 49.065 50.207"><g transform="translate(0.25 0.25)"><path d="M196.187,285.471a1.468,1.468,0,0,0,2.076,0l5.24-5.24a1.468,1.468,0,0,0-2.076-2.076l-4.2,4.2-1.916-1.916a1.468,1.468,0,1,0-2.076,2.076Zm0,0" transform="translate(-174.085 -250.763)" fill="#fff"/><path d="M197.225,286.151a1.708,1.708,0,0,1-1.215-.5l-2.954-2.954a1.718,1.718,0,0,1,2.429-2.43L197.225,282l4.025-4.025a1.718,1.718,0,1,1,2.429,2.43l-5.24,5.24A1.706,1.706,0,0,1,197.225,286.151Zm-2.954-5.889a1.218,1.218,0,0,0-.861,2.079l2.954,2.954a1.218,1.218,0,0,0,1.722,0l5.24-5.24a1.218,1.218,0,0,0-1.722-1.722l-4.379,4.379-2.093-2.093A1.21,1.21,0,0,0,194.271,280.262Z" transform="translate(-174.085 -250.763)" fill="#fff"/><path d="M141.757,223.119a11.652,11.652,0,1,0-11.652-11.652A11.665,11.665,0,0,0,141.757,223.119Zm0-20.368a8.716,8.716,0,1,1-8.716,8.716A8.726,8.726,0,0,1,141.757,202.751Zm0,0" transform="translate(-117.474 -180.417)" fill="#fff"/><path d="M141.757,223.369a11.9,11.9,0,1,1,11.9-11.9A11.915,11.915,0,0,1,141.757,223.369Zm0-23.3a11.4,11.4,0,1,0,11.4,11.4A11.414,11.414,0,0,0,141.757,200.066Zm0,20.368a8.966,8.966,0,1,1,8.966-8.966A8.977,8.977,0,0,1,141.757,220.434Zm0-17.432a8.466,8.466,0,1,0,8.466,8.466A8.476,8.476,0,0,0,141.757,203Z" transform="translate(-117.474 -180.417)" fill="#fff"/><path d="M43.818,3.125H41.141V1.468a1.468,1.468,0,1,0-2.935,0V3.125H35.322V1.468a1.468,1.468,0,0,0-2.936,0V3.125H16.179V1.468a1.468,1.468,0,0,0-2.936,0V3.125H10.359V1.468a1.468,1.468,0,0,0-2.936,0V3.125H4.746A4.752,4.752,0,0,0,0,7.872V44.961a4.752,4.752,0,0,0,4.747,4.747H43.818a4.752,4.752,0,0,0,4.747-4.747V7.872a4.752,4.752,0,0,0-4.747-4.747Zm1.811,41.836a1.813,1.813,0,0,1-1.811,1.811H4.746a1.814,1.814,0,0,1-1.811-1.811V15.33H45.629ZM2.935,7.872A1.813,1.813,0,0,1,4.746,6.061H7.424V7.719a1.468,1.468,0,0,0,2.936,0V6.061h2.884V7.719a1.468,1.468,0,0,0,2.936,0V6.061H32.386V7.719a1.468,1.468,0,0,0,2.936,0V6.061h2.884V7.719a1.468,1.468,0,0,0,2.936,0V6.061h2.677A1.813,1.813,0,0,1,45.63,7.872v4.522H2.935Zm0,0" fill="#fff"/><path d="M43.818,49.957H4.746a5,5,0,0,1-5-5V7.872a5,5,0,0,1,5-5H7.174V1.468a1.718,1.718,0,0,1,3.436,0V2.875h2.384V1.468a1.718,1.718,0,0,1,3.436,0V2.875H32.136V1.468a1.718,1.718,0,0,1,3.436,0V2.875h2.384V1.468a1.718,1.718,0,1,1,3.435,0V2.875h2.427a5,5,0,0,1,5,5V44.961A5,5,0,0,1,43.818,49.957ZM4.746,3.375a4.5,4.5,0,0,0-4.5,4.5V44.961a4.5,4.5,0,0,0,4.5,4.5H43.818a4.5,4.5,0,0,0,4.5-4.5V7.872a4.5,4.5,0,0,0-4.5-4.5H40.891V1.468a1.218,1.218,0,1,0-2.435,0V3.375H35.072V1.468a1.218,1.218,0,0,0-2.436,0V3.375H15.929V1.468a1.218,1.218,0,0,0-2.436,0V3.375H10.109V1.468a1.218,1.218,0,0,0-2.436,0V3.375ZM43.818,47.022H4.746a2.064,2.064,0,0,1-2.061-2.061V15.08H45.879V44.961A2.063,2.063,0,0,1,43.818,47.022ZM3.185,15.58V44.961a1.563,1.563,0,0,0,1.561,1.561H43.818a1.563,1.563,0,0,0,1.561-1.561V15.58ZM45.88,12.644H2.685V7.872A2.064,2.064,0,0,1,4.746,5.811H7.674V7.719a1.218,1.218,0,0,0,2.436,0V5.811h3.384V7.719a1.218,1.218,0,0,0,2.436,0V5.811H32.636V7.719a1.218,1.218,0,0,0,2.436,0V5.811h3.384V7.719a1.218,1.218,0,0,0,2.436,0V5.811h2.927A2.064,2.064,0,0,1,45.88,7.872Zm-42.695-.5H45.38V7.872a1.563,1.563,0,0,0-1.561-1.561H41.392V7.719a1.718,1.718,0,0,1-3.436,0V6.311H35.572V7.719a1.718,1.718,0,0,1-3.436,0V6.311H16.429V7.719a1.718,1.718,0,0,1-3.436,0V6.311H10.609V7.719a1.718,1.718,0,0,1-3.436,0V6.311H4.746A1.563,1.563,0,0,0,3.185,7.872Z" fill="#fff"/></g></svg>