<svg xmlns="http://www.w3.org/2000/svg" width="19.119" height="21.85" viewBox="0 0 19.119 21.85"><path d="M9.559,21.85a2.731,2.731,0,0,0,2.73-2.731H6.829A2.731,2.731,0,0,0,9.559,21.85Zm9.192-6.389c-.824-.886-2.367-2.219-2.367-6.584a6.739,6.739,0,0,0-5.46-6.622V1.366a1.365,1.365,0,1,0-2.73,0v.889a6.739,6.739,0,0,0-5.46,6.622c0,4.366-1.543,5.7-2.367,6.584A1.333,1.333,0,0,0,0,16.387a1.367,1.367,0,0,0,1.37,1.366H17.749a1.367,1.367,0,0,0,1.37-1.366,1.333,1.333,0,0,0-.367-.926Z" transform="translate(0)" fill="#a5a5a5"/></svg>