<svg xmlns="http://www.w3.org/2000/svg" width="55" height="55" viewBox="0 0 55 55"><g transform="translate(-348 -829)"><circle cx="27.5" cy="27.5" r="27.5" transform="translate(348 829)" fill="#b32f32"/><path d="M7.141,12.989H17.778L13.653,9.043a1.644,1.644,0,0,1,0-2.247,1.47,1.47,0,0,1,2.147,0l6.869,6.661a1.514,1.514,0,0,1,.447,1.113v.02a1.514,1.514,0,0,1-.447,1.113L15.8,22.364a1.47,1.47,0,0,1-2.147,0,1.644,1.644,0,0,1,0-2.247l4.126-3.947H7.146A1.556,1.556,0,0,1,5.625,14.58,1.54,1.54,0,0,1,7.141,12.989Z" transform="translate(361.375 841.67)" fill="#fff"/></g></svg>