<svg xmlns="http://www.w3.org/2000/svg" width="55" height="55" viewBox="0 0 55 55"><g transform="translate(-348 -829)"><circle cx="27.5" cy="27.5" r="27.5" transform="translate(348 829)" fill="#b32f32"/><path d="M33.3,14.266,31.42,12.334a.4.4,0,0,0-.3-.128h0a.388.388,0,0,0-.3.128L17.8,25.453,13.06,20.714a.413.413,0,0,0-.6,0l-1.9,1.9a.425.425,0,0,0,0,.608L16.54,29.2a1.89,1.89,0,0,0,1.249.608,1.981,1.981,0,0,0,1.238-.587h.011L33.309,14.875A.456.456,0,0,0,33.3,14.266Z" transform="translate(353.573 835.493)" fill="#fff"/></g></svg>