<svg xmlns="http://www.w3.org/2000/svg" width="25" height="25" viewBox="0 0 25 25"><g transform="translate(-1 -1)"><g transform="translate(1 1)"><path d="M25.664,25.664a1.136,1.136,0,0,1-1.613,0l-2.136-2.147a5.476,5.476,0,1,1,1.6-1.6l2.147,2.136a1.136,1.136,0,0,1,0,1.613ZM21.449,6.68v4.965a7.952,7.952,0,0,0-2.5-.42,7.725,7.725,0,0,0-3.181,14.769H6.68A5.68,5.68,0,0,1,1,20.313V6.68A5.68,5.68,0,0,1,6.68,1h9.089A5.68,5.68,0,0,1,21.449,6.68ZM16.9,5.965a1.136,1.136,0,0,0-1.136-1.136H13.156A1.14,1.14,0,1,0,12.963,7.1l-1.25,1.136-1-.932a1.136,1.136,0,0,0-1.556,0L5.9,10.4a1.141,1.141,0,0,0,1.568,1.659L9.941,9.7l1.011.943a1.136,1.136,0,0,0,1.556,0l2.124-2.034a1.136,1.136,0,1,0,2.272,0Z" transform="translate(-1 -1)" fill="#b32f32"/></g></g></svg>