<svg xmlns="http://www.w3.org/2000/svg" width="26.3" height="26.3" viewBox="0 0 26.3 26.3"><g transform="translate(-0.35 -0.35)"><g transform="translate(1 1)"><path d="M24.857,26.65a1.8,1.8,0,0,1-1.268-.528L21.81,24.333a6.125,6.125,0,1,1,2.523-2.523l1.789,1.78a1.793,1.793,0,0,1-1.265,3.06ZM22,22.684l2.508,2.522a.486.486,0,0,0,.691,0l0,0a.486.486,0,0,0,0-.69L22.684,22l.288-.443a4.827,4.827,0,1,0-1.412,1.412Zm-6.234,3.96H6.68a6.337,6.337,0,0,1-6.33-6.33V6.68A6.337,6.337,0,0,1,6.68.35h9.089A6.337,6.337,0,0,1,22.1,6.68v5.871l-.859-.291a7.29,7.29,0,0,0-2.3-.386h0A7.075,7.075,0,0,0,16.036,25.4ZM6.68,1.65A5.036,5.036,0,0,0,1.65,6.68V20.313a5.036,5.036,0,0,0,5.03,5.03h6.854a8.374,8.374,0,0,1,5.407-14.769h.009a8.605,8.605,0,0,1,1.849.213V6.68a5.036,5.036,0,0,0-5.03-5.03Zm.007,11.361h-.03a1.776,1.776,0,0,1-1.226-.547,1.786,1.786,0,0,1,.007-2.529l.011-.01L8.71,6.833a1.786,1.786,0,0,1,2.449,0l.56.522.1-.094a1.823,1.823,0,0,1-.132-.14,1.778,1.778,0,0,1-.415-1.306,1.8,1.8,0,0,1,1.782-1.639c.041,0,.082,0,.122,0h2.588a1.788,1.788,0,0,1,1.786,1.786V8.612a1.785,1.785,0,0,1-3.166,1.133l-1.436,1.374a1.786,1.786,0,0,1-2.447,0l-.562-.524-2.033,1.93A1.783,1.783,0,0,1,6.688,13.011Zm-.338-2.15a.486.486,0,0,0,0,.686l.013.013a.449.449,0,0,0,.653.019L9.937,8.81,11.4,10.17a.486.486,0,0,0,.666,0L15.283,7.09V8.612a.486.486,0,0,0,.972,0V5.965a.487.487,0,0,0-.486-.486l-2.668,0a.494.494,0,0,0-.53.447.49.49,0,0,0,.447.53l1.485.126L11.708,9.12,10.27,7.781a.486.486,0,0,0-.668,0Z" transform="translate(-1 -1)" fill="#8d8d8d"/></g></g></svg>