<svg xmlns="http://www.w3.org/2000/svg" width="49.729" height="49.707" viewBox="0 0 49.729 49.707"><g transform="translate(0 -0.114)"><g transform="translate(0 0.114)"><path d="M40.128,3.933H38.273V2.056a1.942,1.942,0,1,0-3.883,0V3.933H15.339V2.056a1.942,1.942,0,0,0-3.883,0V3.933H9.6a9.612,9.612,0,0,0-9.6,9.6V40.22a9.612,9.612,0,0,0,9.6,9.6H40.128a9.612,9.612,0,0,0,9.6-9.6V13.534a9.612,9.612,0,0,0-9.6-9.6ZM9.6,7.816h1.855V11.6a1.942,1.942,0,0,0,3.883,0V7.816H34.39V11.6a1.942,1.942,0,0,0,3.883,0V7.816h1.855a5.724,5.724,0,0,1,5.718,5.718v1.855H3.883V13.534A5.724,5.724,0,0,1,9.6,7.816ZM40.128,45.938H9.6A5.724,5.724,0,0,1,3.883,40.22V19.272H45.846V40.22A5.724,5.724,0,0,1,40.128,45.938ZM17.249,26.909a1.942,1.942,0,0,1-1.942,1.942H11.488a1.942,1.942,0,1,1,0-3.883h3.819A1.942,1.942,0,0,1,17.249,26.909Zm22.934,0a1.942,1.942,0,0,1-1.942,1.942H34.423a1.942,1.942,0,0,1,0-3.883h3.819A1.942,1.942,0,0,1,40.183,26.909Zm-11.478,0a1.942,1.942,0,0,1-1.942,1.942H22.944a1.942,1.942,0,1,1,0-3.883h3.819A1.942,1.942,0,0,1,28.7,26.909ZM17.249,38.365a1.942,1.942,0,0,1-1.942,1.942H11.488a1.942,1.942,0,1,1,0-3.883h3.819A1.942,1.942,0,0,1,17.249,38.365Zm22.934,0a1.942,1.942,0,0,1-1.942,1.942H34.423a1.942,1.942,0,0,1,0-3.883h3.819A1.942,1.942,0,0,1,40.183,38.365Zm-11.478,0a1.942,1.942,0,0,1-1.942,1.942H22.944a1.942,1.942,0,1,1,0-3.883h3.819A1.942,1.942,0,0,1,28.7,38.365Z" transform="translate(0 -0.114)" fill="#fff"/></g></g></svg>