<svg xmlns="http://www.w3.org/2000/svg" width="49.8" height="49.8" viewBox="0 0 49.8 49.8"><g transform="translate(0)"><g transform="translate(0 0)"><path d="M48.341,10.3A1.459,1.459,0,0,0,49.8,8.844V1.459A1.459,1.459,0,0,0,48.341,0H40.956A1.459,1.459,0,0,0,39.5,1.459V3.692H10.3V1.459A1.459,1.459,0,0,0,8.844,0H1.459A1.459,1.459,0,0,0,0,1.459V8.844A1.459,1.459,0,0,0,1.459,10.3H3.692V39.5H1.459A1.459,1.459,0,0,0,0,40.956v7.385A1.459,1.459,0,0,0,1.459,49.8H8.844A1.459,1.459,0,0,0,10.3,48.341V46.108H39.5v2.233A1.459,1.459,0,0,0,40.956,49.8h7.385A1.459,1.459,0,0,0,49.8,48.341V40.956A1.459,1.459,0,0,0,48.341,39.5H46.108V10.3ZM42.415,2.918h4.467V7.385H42.415Zm-39.5,0H7.385V7.385H2.918ZM7.385,46.882H2.918V42.415H7.385Zm39.5,0H42.415V42.415h4.467ZM43.19,39.5H40.956A1.459,1.459,0,0,0,39.5,40.956v2.233H10.3V40.956A1.459,1.459,0,0,0,8.844,39.5H6.61V10.3H8.844A1.459,1.459,0,0,0,10.3,8.844V6.61H39.5V8.844A1.459,1.459,0,0,0,40.956,10.3h2.233V39.5Z" transform="translate(0 0)" fill="#fff"/><path d="M155.873,137.162H134.961a1.459,1.459,0,0,0-1.459,1.459v5.305a1.459,1.459,0,0,0,2.918,0V140.08h7.538v17.476h-2.719a1.459,1.459,0,0,0,0,2.918h8.355a1.459,1.459,0,0,0,0-2.918h-2.719V140.08h7.538v3.846a1.459,1.459,0,1,0,2.918,0v-5.305A1.459,1.459,0,0,0,155.873,137.162Z" transform="translate(-120.517 -123.821)" fill="#fff"/></g></g></svg>