<svg xmlns="http://www.w3.org/2000/svg" width="24.105" height="22.496" viewBox="0 0 24.105 22.496"><g transform="translate(-0.005 0.001)"><path d="M22.207,3.189A6.963,6.963,0,0,0,12.352,2.9l-.3.288A6.971,6.971,0,0,0,1.9,12.755l.687.728a2.034,2.034,0,0,0,2.127,2.824A2.025,2.025,0,0,0,6.972,18.7a2.024,2.024,0,0,0,2.254,2.389,2.041,2.041,0,0,0,3.407,1.855c2.293-2.165,2.221-2.057,2.438-2.421a2.029,2.029,0,0,0,2.908-2.08,2.031,2.031,0,0,0,2.388-2.257A2.041,2.041,0,0,0,22.2,12.753a6.951,6.951,0,0,0,.008-9.564ZM3.565,15.142a1.243,1.243,0,0,1,.051-1.754L5.7,11.415a1.241,1.241,0,0,1,1.7,1.8L5.318,15.192a1.241,1.241,0,0,1-1.753-.051Zm2.254,2.389a1.242,1.242,0,0,1,.051-1.754L7.959,13.8a1.24,1.24,0,1,1,1.7,1.8L7.572,17.581a1.242,1.242,0,0,1-1.753-.053Zm2.254,2.389a1.242,1.242,0,0,1,.051-1.754l2.089-1.973a1.24,1.24,0,0,1,1.7,1.8L9.827,19.967a1.241,1.241,0,0,1-1.754-.05Zm4.008,2.44a1.24,1.24,0,0,1-1.7-1.8l2.089-1.973a1.241,1.241,0,0,1,1.7,1.8Zm9.5-7.279a1.237,1.237,0,0,1-1.753-.051L14.477,9.356a.4.4,0,0,0-.585.552l5.355,5.673a1.24,1.24,0,0,1-1.8,1.7L12.089,11.61a.4.4,0,0,0-.585.552l5.353,5.672a1.239,1.239,0,0,1-1.523,1.922,2.028,2.028,0,0,0-1.957-2.319c-.442-.012-.281.155-.27-.286a2.043,2.043,0,0,0-1.984-2.1c-.442-.014-.283.161-.27-.286a2.044,2.044,0,0,0-1.984-2.1c-.445-.012-.283.164-.27-.286a2.046,2.046,0,0,0-3.446-1.546c-2.873,2.712-1.881,1.777-2.1,1.979l-.57-.6a6.167,6.167,0,1,1,8.974-8.46L8.172,6.85A1.668,1.668,0,0,0,7.66,7.99c-.04,1.65,2.414,2.689,3.914,1.27l3-2.83a.4.4,0,0,1,.568.016l6.493,6.881a1.24,1.24,0,0,1-.051,1.753Zm.069-2.9L15.725,5.894a1.205,1.205,0,0,0-1.7-.049l-3,2.831A1.647,1.647,0,0,1,8.689,8.6a.827.827,0,0,1,.036-1.17L12.9,3.487a6.168,6.168,0,0,1,8.749,8.688Z" transform="translate(0 -1)" fill="#fff"/></g></svg>