<svg xmlns="http://www.w3.org/2000/svg" width="16" height="25" viewBox="0 0 16 25"><g transform="translate(-8.996)"><g transform="translate(8.996 0)"><path d="M23.218,10.31,25,7.9v-.76H23.663V4.917a4.185,4.185,0,0,0-1.651-.53l-.36-1.2a.116.116,0,0,0-.037-.055L18.526.711a.529.529,0,0,0,.037-.184A.528.528,0,1,0,18.408.9L21.45,3.284l.318,1.06A29.013,29.013,0,0,0,17,4.027c-5.585,0-6.667.889-6.667.889v2.22H9V7.9l1.778,2.413h.443L12.093,22.5l-1.764,1.91V25H23.662v-.594L21.9,22.5l.875-12.186Z" transform="translate(-8.996 0)" fill="#b32f32"/></g></g></svg>