<svg xmlns="http://www.w3.org/2000/svg" width="17.3" height="26.3" viewBox="0 0 17.3 26.3"><g transform="translate(-8.346 0.65)"><g transform="translate(8.996 0)"><path d="M18.037-.65A1.178,1.178,0,0,1,19.208.419l2.814,2.205a.765.765,0,0,1,.248.36l0,.015.249.83a3.918,3.918,0,0,1,1.551.585l.238.2V6.486h1.333V8.111l-2.1,2.849h-.167l-.812,11.3,1.745,1.889v1.5H9.679v-1.5l1.745-1.889-.812-11.3h-.167l-2.1-2.849V6.486H9.679V4.609l.237-.2c.211-.173,1.542-1.037,7.079-1.037a35.86,35.86,0,0,1,3.738.171l-2.4-1.882A1.178,1.178,0,0,1,16.861.527,1.178,1.178,0,0,1,18.037-.65Zm3.836,5.672-.213-.036A28.922,28.922,0,0,0,17,4.677c-3.823,0-5.444.428-6.017.643V7.787H9.722L11.1,9.66h.72l.939,13.071-1.5,1.619h11.46l-1.5-1.619L22.169,9.66h.72l1.38-1.873H23.013V5.319a6.781,6.781,0,0,0-1.121-.294Z" transform="translate(-8.996 0)" fill="#8d8d8d"/></g></g></svg>