<svg xmlns="http://www.w3.org/2000/svg" width="44.585" height="33.961" viewBox="0 0 44.585 33.961"><g transform="translate(0 -61)"><g transform="translate(0 61)"><path d="M208.447,172.729,198,166.2a1.306,1.306,0,0,0-2,1.108v13.062a1.306,1.306,0,0,0,2,1.108l10.45-6.531a1.306,1.306,0,0,0,0-2.215Zm-9.836,5.282v-8.349l6.679,4.174Z" transform="translate(-178.931 -156.857)" fill="#fff"/><path d="M38.054,61H6.531A6.538,6.538,0,0,0,0,67.531v20.9a6.538,6.538,0,0,0,6.531,6.531H38.054a6.538,6.538,0,0,0,6.531-6.531v-20.9A6.538,6.538,0,0,0,38.054,61Zm3.919,27.43a3.923,3.923,0,0,1-3.919,3.919H6.531A3.923,3.923,0,0,1,2.612,88.43v-20.9a3.923,3.923,0,0,1,3.919-3.919H38.054a3.923,3.923,0,0,1,3.919,3.919Z" transform="translate(0 -61)" fill="#fff"/></g></g></svg>