<svg xmlns="http://www.w3.org/2000/svg" width="49.791" height="49.8" viewBox="0 0 49.791 49.8"><g transform="translate(-2 -1.995)"><g transform="translate(2 1.995)"><path d="M25.613,21.226h0A7.344,7.344,0,0,1,18.5,14.113,7.113,7.113,0,0,1,25.613,7a1.778,1.778,0,1,1,0,3.557,3.557,3.557,0,0,0-3.557,3.557,3.77,3.77,0,0,0,3.557,3.557,1.778,1.778,0,1,1,0,3.557Z" transform="translate(10.841 1.9)" fill="#fff"/><path d="M10.278,21.226a1.778,1.778,0,0,1,0-3.557,3.557,3.557,0,0,0,3.557-3.557,3.77,3.77,0,0,0-3.557-3.557A1.779,1.779,0,0,1,10.385,7,7.344,7.344,0,0,1,17.5,14.113a7.113,7.113,0,0,1-7.22,7.113Z" transform="translate(3.059 1.9)" fill="#fff"/><path d="M22.226,32.235C14.384,32.235,8,26.651,8,19.787a1.778,1.778,0,0,1,1.778-1.778H33.714a1.778,1.778,0,0,1,.48,0,2.062,2.062,0,0,1,2.312,1.778C36.257,25.833,30.495,32.235,22.226,32.235ZM11.77,21.565c1,4.054,5.335,7.113,10.456,7.113a10.563,10.563,0,0,0,10.349-7.113Z" transform="translate(2.67 10.452)" fill="#fff"/><path d="M42.9,51.791H10.891A8.891,8.891,0,0,1,2,42.9V10.891A8.891,8.891,0,0,1,10.891,2H39.343a1.778,1.778,0,1,1,0,3.557H10.891a5.335,5.335,0,0,0-5.335,5.335V42.9a5.335,5.335,0,0,0,5.335,5.335H42.9a5.335,5.335,0,0,0,3.77-1.565,5.477,5.477,0,0,0,1.565-3.77V19.783a1.778,1.778,0,1,1,3.557,0V42.9A8.864,8.864,0,0,1,42.9,51.791Z" transform="translate(-2 -1.991)" fill="#fff"/><path d="M29.335,16.23A5.335,5.335,0,0,1,24,10.9c0-2.276,2.7-6.437,3.877-8.127a1.778,1.778,0,0,1,2.934,0c1.156,1.689,3.859,5.85,3.859,8.127A5.335,5.335,0,0,1,29.335,16.23Zm0-9.158A13.3,13.3,0,0,0,27.557,10.9a1.778,1.778,0,1,0,3.557,0,13.284,13.284,0,0,0-1.778-3.823Z" transform="translate(15.122 -1.995)" fill="#fff"/></g></g></svg>