<svg xmlns="http://www.w3.org/2000/svg" width="56.187" height="50.965" viewBox="0 0 56.187 50.965"><g transform="translate(0 -0.55)"><path d="M50.809.55H5.377A5.156,5.156,0,0,0,0,5.438V36.269a5.156,5.156,0,0,0,5.377,4.888h13.47l-1.271,7.358h-2.5a1.5,1.5,0,1,0,0,2.991c5.513.011,20.544.009,26.031,0a1.5,1.5,0,1,0,0-2.991H38.385l-1.141-7.358H50.809a5.156,5.156,0,0,0,5.377-4.888V5.438A5.156,5.156,0,0,0,50.809.55ZM52.9,5.438v13.92h-4.02A6.436,6.436,0,0,0,45.554,15.1a4.593,4.593,0,0,0,.969-2.805,5.192,5.192,0,0,0-5.415-4.922,5.192,5.192,0,0,0-5.415,4.922,4.593,4.593,0,0,0,.969,2.805,6.436,6.436,0,0,0-3.322,4.261h-3.6V3.541h21.07a2,2,0,0,1,2.086,1.9ZM41.234,14.216h-.249a2.022,2.022,0,0,1-2-1.925,2.133,2.133,0,0,1,4.248,0,2.022,2.022,0,0,1-2,1.925ZM40.21,17.207c.507,0,1.17,0,1.8,0a3.724,3.724,0,0,1,3.457,2.151H36.753A3.723,3.723,0,0,1,40.21,17.207ZM5.377,3.541h21.07V19.358H22.775A6.437,6.437,0,0,0,19.453,15.1a4.593,4.593,0,0,0,.969-2.805,5.192,5.192,0,0,0-5.415-4.922,5.192,5.192,0,0,0-5.415,4.922,4.593,4.593,0,0,0,.969,2.805A6.436,6.436,0,0,0,7.24,19.358H3.291V5.438a2,2,0,0,1,2.087-1.9Zm9.755,10.674h-.249a2.022,2.022,0,0,1-2-1.925,2.036,2.036,0,0,1,2.124-1.931,2.036,2.036,0,0,1,2.124,1.931A2.022,2.022,0,0,1,15.132,14.216Zm-1.023,2.991c.507,0,1.17,0,1.8,0a3.724,3.724,0,0,1,3.457,2.151H10.652a3.723,3.723,0,0,1,3.457-2.151ZM3.291,36.269V22.349H26.448V38.166H22.775A6.436,6.436,0,0,0,19.453,33.9a4.593,4.593,0,0,0,.969-2.806,5.192,5.192,0,0,0-5.415-4.922A5.192,5.192,0,0,0,9.593,31.1a4.593,4.593,0,0,0,.969,2.806A6.436,6.436,0,0,0,7.24,38.166H5.377a2,2,0,0,1-2.087-1.9Zm11.592-3.245a1.933,1.933,0,1,1,.125-3.855,1.933,1.933,0,1,1,.125,3.855Zm-.774,2.991c.507,0,1.17,0,1.8,0a3.724,3.724,0,0,1,3.457,2.151H10.652A3.723,3.723,0,0,1,14.109,36.015Zm6.8,12.5,1.271-7.358H33.92l1.141,7.358Zm15.846-10.35a3.724,3.724,0,0,1,3.457-2.151c.507,0,1.17,0,1.8,0a3.724,3.724,0,0,1,3.457,2.151Zm4.48-5.142h-.249a2.134,2.134,0,1,1,.249,0Zm9.576,5.142H48.876A6.436,6.436,0,0,0,45.554,33.9a4.593,4.593,0,0,0,.969-2.806,5.192,5.192,0,0,0-5.415-4.922A5.192,5.192,0,0,0,35.694,31.1a4.593,4.593,0,0,0,.969,2.806,6.436,6.436,0,0,0-3.322,4.261h-3.6V22.349H52.9v13.92a2,2,0,0,1-2.087,1.9Z" fill="#fff"/></g></svg>